<?xml version="1.0" encoding="UTF-8" standalone="no"?>
<!DOCTYPE svg PUBLIC "-//W3C//DTD SVG 1.1//EN"
 "http://www.w3.org/Graphics/SVG/1.1/DTD/svg11.dtd">
<!-- Generated by graphviz version 2.26.3 (20100126.1600)
 -->
<!-- Title: _anonymous_0 Pages: 1 -->
<svg width="1030pt" height="417pt"
 viewBox="0.00 0.00 1030.00 417.00" xmlns="http://www.w3.org/2000/svg" xmlns:xlink="http://www.w3.org/1999/xlink">
<g id="graph1" class="graph" transform="scale(1 1) rotate(0) translate(4 413)">
<title>_anonymous_0</title>
<polygon fill="white" stroke="white" points="-4,5 -4,-413 1027,-413 1027,5 -4,5"/>
<g id="graph2" class="cluster"><title>cluster_0</title>
<polygon fill="none" stroke="black" points="8,-80 8,-243 574,-243 574,-80 8,-80"/>
<text text-anchor="middle" x="291" y="-226.4" font-family="Times New Roman,serif" font-size="14.00">收付款</text>
</g>
<g id="graph3" class="cluster"><title>cluster_1</title>
<polygon fill="none" stroke="black" points="582,-80 582,-243 1014,-243 1014,-80 582,-80"/>
<text text-anchor="middle" x="798" y="-226.4" font-family="Times New Roman,serif" font-size="14.00">收发货</text>
</g>
<!-- draft -->
<g id="node1" class="node"><title>draft</title>
<ellipse fill="#ccffcc" stroke="black" cx="514" cy="-391" rx="44.1961" ry="18"/>
<text text-anchor="middle" x="514" y="-389.5" font-family="Microsoft Yahei" font-size="10.00">[draft] 草稿</text>
</g>
<!-- router -->
<g id="node2" class="node"><title>router</title>
<polygon fill="none" stroke="black" points="560,-321 468,-321 468,-285 560,-285 560,-321"/>
<text text-anchor="middle" x="514" y="-301.5" font-family="Microsoft Yahei" font-size="10.00">[router] 路由节点</text>
</g>
<!-- draft&#45;&gt;router -->
<g id="edge2" class="edge"><title>draft&#45;&gt;router</title>
<path fill="none" stroke="blue" d="M514,-372.766C514,-360.849 514,-345.038 514,-331.482"/>
<polygon fill="blue" stroke="blue" points="517.5,-331.21 514,-321.21 510.5,-331.21 517.5,-331.21"/>
<text text-anchor="middle" x="534" y="-345.5" font-family="Microsoft Yahei" font-size="10.00" fill="blue">审核通过</text>
</g>
<!-- wait_payment -->
<g id="node3" class="node"><title>wait_payment</title>
<ellipse fill="none" stroke="black" cx="368" cy="-194" rx="102.19" ry="18"/>
<text text-anchor="middle" x="368" y="-192.5" font-family="Microsoft Yahei" font-size="10.00">[wait_payment] 等待全部收付款</text>
</g>
<!-- router&#45;&gt;wait_payment -->
<g id="edge6" class="edge"><title>router&#45;&gt;wait_payment</title>
<path fill="none" stroke="blue" d="M479.543,-284.976C470.051,-279.569 459.918,-273.37 451,-267 430.602,-252.43 409.411,-233.722 393.546,-218.893"/>
<polygon fill="blue" stroke="blue" points="395.884,-216.287 386.213,-211.96 391.075,-221.374 395.884,-216.287"/>
<text text-anchor="middle" x="475.5" y="-257.5" font-family="Microsoft Yahei" font-size="10.00" fill="blue">无条件迁移</text>
</g>
<!-- wait_delivery -->
<g id="node4" class="node"><title>wait_delivery</title>
<ellipse fill="none" stroke="black" cx="690" cy="-194" rx="98.7912" ry="18"/>
<text text-anchor="middle" x="690" y="-192.5" font-family="Microsoft Yahei" font-size="10.00">[wait_delivery] 等待全部收发货</text>
</g>
<!-- router&#45;&gt;wait_delivery -->
<g id="edge8" class="edge"><title>router&#45;&gt;wait_delivery</title>
<path fill="none" stroke="blue" d="M543.458,-284.756C573.602,-266.087 620.518,-237.031 653.114,-216.844"/>
<polygon fill="blue" stroke="blue" points="655.243,-219.643 661.902,-211.402 651.557,-213.691 655.243,-219.643"/>
<text text-anchor="middle" x="621.5" y="-257.5" font-family="Microsoft Yahei" font-size="10.00" fill="blue">无条件迁移</text>
</g>
<!-- aborted -->
<g id="node7" class="node"><title>aborted</title>
<ellipse fill="#ffcccc" stroke="black" cx="514" cy="-106" rx="51.9954" ry="18"/>
<text text-anchor="middle" x="514" y="-104.5" font-family="Microsoft Yahei" font-size="10.00">[abort] 已终止</text>
</g>
<!-- router&#45;&gt;aborted -->
<g id="edge4" class="edge"><title>router&#45;&gt;aborted</title>
<path fill="none" stroke="blue" d="M514,-284.82C514,-250.369 514,-175.358 514,-134.282"/>
<polygon fill="blue" stroke="blue" points="517.5,-134.136 514,-124.136 510.5,-134.136 517.5,-134.136"/>
<text text-anchor="middle" x="524" y="-192.5" font-family="Microsoft Yahei" font-size="10.00" fill="blue">终止</text>
</g>
<!-- payment_done -->
<g id="node5" class="node"><title>payment_done</title>
<ellipse fill="none" stroke="black" cx="121" cy="-106" rx="104.792" ry="18"/>
<text text-anchor="middle" x="121" y="-104.5" font-family="Microsoft Yahei" font-size="10.00">[payment_done] 全部收付款完成</text>
</g>
<!-- wait_payment&#45;&gt;payment_done -->
<g id="edge15" class="edge"><title>wait_payment&#45;&gt;payment_done</title>
<path fill="none" stroke="blue" d="M322.696,-177.859C281.436,-163.159 220.393,-141.411 176.276,-125.694"/>
<polygon fill="blue" stroke="blue" points="177.448,-122.395 166.853,-122.336 175.098,-128.989 177.448,-122.395"/>
<text text-anchor="middle" x="291.5" y="-148.5" font-family="Microsoft Yahei" font-size="10.00" fill="blue">确认收付款</text>
</g>
<!-- wait_payment&#45;&gt;aborted -->
<g id="edge11" class="edge"><title>wait_payment&#45;&gt;aborted</title>
<path fill="none" stroke="blue" d="M389.608,-176.215C403.065,-165.585 420.996,-152.207 438,-142 448.562,-135.66 460.417,-129.588 471.566,-124.297"/>
<polygon fill="blue" stroke="blue" points="473.125,-127.432 480.722,-120.047 470.177,-121.083 473.125,-127.432"/>
<text text-anchor="middle" x="448" y="-148.5" font-family="Microsoft Yahei" font-size="10.00" fill="blue">终止</text>
</g>
<!-- payment_aborted -->
<g id="node9" class="node"><title>payment_aborted</title>
<ellipse fill="#ffcccc" stroke="black" cx="344" cy="-106" rx="100.091" ry="18"/>
<text text-anchor="middle" x="344" y="-104.5" font-family="Microsoft Yahei" font-size="10.00">[payment_abort] 收付款已终止</text>
</g>
<!-- wait_payment&#45;&gt;payment_aborted -->
<g id="edge13" class="edge"><title>wait_payment&#45;&gt;payment_aborted</title>
<path fill="none" stroke="blue" d="M363.027,-175.766C359.745,-163.731 355.38,-147.725 351.658,-134.08"/>
<polygon fill="blue" stroke="blue" points="354.974,-132.937 348.966,-124.21 348.221,-134.779 354.974,-132.937"/>
<text text-anchor="middle" x="383.5" y="-148.5" font-family="Microsoft Yahei" font-size="10.00" fill="blue">取消收付款</text>
</g>
<!-- delivery_done -->
<g id="node6" class="node"><title>delivery_done</title>
<ellipse fill="none" stroke="black" cx="692" cy="-106" rx="102.041" ry="18"/>
<text text-anchor="middle" x="692" y="-104.5" font-family="Microsoft Yahei" font-size="10.00">[delivery_done] 全部收发货完成</text>
</g>
<!-- wait_delivery&#45;&gt;delivery_done -->
<g id="edge18" class="edge"><title>wait_delivery&#45;&gt;delivery_done</title>
<path fill="none" stroke="blue" d="M690.414,-175.766C690.685,-163.849 691.045,-148.038 691.353,-134.482"/>
<polygon fill="blue" stroke="blue" points="694.858,-134.287 691.586,-124.21 687.86,-134.128 694.858,-134.287"/>
<text text-anchor="middle" x="715.5" y="-148.5" font-family="Microsoft Yahei" font-size="10.00" fill="blue">确认收发货</text>
</g>
<!-- wait_delivery&#45;&gt;aborted -->
<g id="edge20" class="edge"><title>wait_delivery&#45;&gt;aborted</title>
<path fill="none" stroke="blue" d="M656.065,-177.033C626.554,-162.277 583.799,-140.899 552.909,-125.455"/>
<polygon fill="blue" stroke="blue" points="554.241,-122.207 543.732,-120.866 551.111,-128.468 554.241,-122.207"/>
<text text-anchor="middle" x="628" y="-148.5" font-family="Microsoft Yahei" font-size="10.00" fill="blue">终止</text>
</g>
<!-- delivery_aborted -->
<g id="node8" class="node"><title>delivery_aborted</title>
<ellipse fill="#ffcccc" stroke="black" cx="909" cy="-106" rx="96.8414" ry="18"/>
<text text-anchor="middle" x="909" y="-104.5" font-family="Microsoft Yahei" font-size="10.00">[delivery_abort] 收发货已终止</text>
</g>
<!-- wait_delivery&#45;&gt;delivery_aborted -->
<g id="edge22" class="edge"><title>wait_delivery&#45;&gt;delivery_aborted</title>
<path fill="none" stroke="blue" d="M730.935,-177.551C767.114,-163.013 820.003,-141.761 858.741,-126.196"/>
<polygon fill="blue" stroke="blue" points="860.292,-129.344 868.265,-122.368 857.682,-122.849 860.292,-129.344"/>
<text text-anchor="middle" x="843.5" y="-148.5" font-family="Microsoft Yahei" font-size="10.00" fill="blue">取消收发货</text>
</g>
<!-- done -->
<g id="node10" class="node"><title>done</title>
<ellipse fill="#cccccc" stroke="black" cx="468" cy="-18" rx="50.1936" ry="18"/>
<text text-anchor="middle" x="468" y="-16.5" font-family="Microsoft Yahei" font-size="10.00">[done] 已完成</text>
</g>
<!-- payment_done&#45;&gt;done -->
<g id="edge26" class="edge"><title>payment_done&#45;&gt;done</title>
<path fill="none" stroke="blue" d="M179.864,-91.072C246.581,-74.1523 354.233,-46.8515 417.348,-30.8454"/>
<polygon fill="blue" stroke="blue" points="418.249,-34.2278 427.082,-28.3769 416.529,-27.4425 418.249,-34.2278"/>
<text text-anchor="middle" x="350.5" y="-60.5" font-family="Microsoft Yahei" font-size="10.00" fill="blue">无条件迁移</text>
</g>
<!-- delivery_done&#45;&gt;done -->
<g id="edge24" class="edge"><title>delivery_done&#45;&gt;done</title>
<path fill="none" stroke="blue" d="M650.13,-89.5511C610.59,-74.0175 551.537,-50.8179 511.478,-35.0806"/>
<polygon fill="blue" stroke="blue" points="512.565,-31.7474 501.978,-31.3485 510.006,-38.2627 512.565,-31.7474"/>
<text text-anchor="middle" x="625.5" y="-60.5" font-family="Microsoft Yahei" font-size="10.00" fill="blue">无条件迁移</text>
</g>
</g>
</svg>
