<?xml version="1.0" encoding="UTF-8" standalone="no"?>
<!DOCTYPE svg PUBLIC "-//W3C//DTD SVG 1.1//EN"
 "http://www.w3.org/Graphics/SVG/1.1/DTD/svg11.dtd">
<!-- Generated by graphviz version 2.26.3 (20100126.1600)
 -->
<!-- Title: finite_state_machine Pages: 1 -->
<svg width="230pt" height="220pt"
 viewBox="0.00 0.00 230.00 220.00" xmlns="http://www.w3.org/2000/svg" xmlns:xlink="http://www.w3.org/1999/xlink">
<g id="graph1" class="graph" transform="scale(1 1) rotate(0) translate(4 216)">
<title>finite_state_machine</title>
<polygon fill="white" stroke="white" points="-4,5 -4,-216 227,-216 227,5 -4,5"/>
<!-- draft -->
<g id="node1" class="node"><title>draft</title>
<ellipse fill="#ccffcc" stroke="black" cx="112" cy="-194" rx="44.1961" ry="18"/>
<text text-anchor="middle" x="112" y="-192.5" font-family="Microsoft Yahei" font-size="10.00">[draft] 草稿</text>
</g>
<!-- wait -->
<g id="node2" class="node"><title>wait</title>
<ellipse fill="none" stroke="black" cx="112" cy="-106" rx="59.9451" ry="18"/>
<text text-anchor="middle" x="112" y="-104.5" font-family="Microsoft Yahei" font-size="10.00">[wait] 等待收付款</text>
</g>
<!-- draft&#45;&gt;wait -->
<g id="edge2" class="edge"><title>draft&#45;&gt;wait</title>
<path fill="none" stroke="blue" d="M112,-175.766C112,-163.849 112,-148.038 112,-134.482"/>
<polygon fill="blue" stroke="blue" points="115.5,-134.21 112,-124.21 108.5,-134.21 115.5,-134.21"/>
<text text-anchor="middle" x="132" y="-148.5" font-family="Microsoft Yahei" font-size="10.00" fill="blue">审核通过</text>
</g>
<!-- aborted -->
<g id="node3" class="node"><title>aborted</title>
<ellipse fill="#ffcccc" stroke="black" cx="52" cy="-18" rx="51.9954" ry="18"/>
<text text-anchor="middle" x="52" y="-16.5" font-family="Microsoft Yahei" font-size="10.00">[abort] 已终止</text>
</g>
<!-- wait&#45;&gt;aborted -->
<g id="edge4" class="edge"><title>wait&#45;&gt;aborted</title>
<path fill="none" stroke="blue" d="M99.8581,-88.1919C91.2375,-75.5484 79.5239,-58.3683 69.843,-44.1698"/>
<polygon fill="blue" stroke="blue" points="72.6491,-42.0722 64.1238,-35.7816 66.8654,-46.0156 72.6491,-42.0722"/>
<text text-anchor="middle" x="98" y="-60.5" font-family="Microsoft Yahei" font-size="10.00" fill="blue">终止</text>
</g>
<!-- done -->
<g id="node4" class="node"><title>done</title>
<ellipse fill="#cccccc" stroke="black" cx="172" cy="-18" rx="50.1936" ry="18"/>
<text text-anchor="middle" x="172" y="-16.5" font-family="Microsoft Yahei" font-size="10.00">[done] 已完成</text>
</g>
<!-- wait&#45;&gt;done -->
<g id="edge6" class="edge"><title>wait&#45;&gt;done</title>
<path fill="none" stroke="blue" d="M124.142,-88.1919C132.819,-75.4652 144.63,-58.1421 154.348,-43.8899"/>
<polygon fill="blue" stroke="blue" points="157.339,-45.7153 160.081,-35.4813 151.556,-41.7719 157.339,-45.7153"/>
<text text-anchor="middle" x="171.5" y="-60.5" font-family="Microsoft Yahei" font-size="10.00" fill="blue">完成收付款</text>
</g>
</g>
</svg>
